<svg xmlns="http://www.w3.org/2000/svg" viewBox="0 0 800 450" width="800" height="450">
  <defs>
    <linearGradient id="dusk" x1="0" y1="0" x2="0" y2="1">
      <stop offset="0" stop-color="#b45309"/>
      <stop offset="0.55" stop-color="#7c2d12"/>
      <stop offset="1" stop-color="#1c1008"/>
    </linearGradient>
  </defs>
  <rect width="800" height="450" fill="url(#dusk)"/>
  <circle cx="400" cy="170" r="66" fill="#fde68a" opacity="0.92"/>
  <g fill="#231308">
    <rect x="40" y="250" width="78" height="200"/>
    <rect x="135" y="190" width="64" height="260"/>
    <rect x="214" y="290" width="58" height="160"/>
    <rect x="288" y="150" width="72" height="300"/>
    <rect x="376" y="240" width="60" height="210"/>
    <rect x="452" y="120" width="80" height="330"/>
    <rect x="548" y="220" width="62" height="230"/>
    <rect x="626" y="180" width="70" height="270"/>
    <rect x="712" y="280" width="56" height="170"/>
  </g>
  <g fill="#fbbf24" opacity="0.85">
    <rect x="156" y="214" width="9" height="12"/>
    <rect x="176" y="244" width="9" height="12"/>
    <rect x="308" y="178" width="9" height="12"/>
    <rect x="330" y="220" width="9" height="12"/>
    <rect x="472" y="150" width="9" height="12"/>
    <rect x="496" y="200" width="9" height="12"/>
    <rect x="646" y="210" width="9" height="12"/>
  </g>
  <text x="44" y="412" font-family="Segoe UI, Helvetica, Arial, sans-serif" font-size="34" font-weight="700" fill="#fff7ed">City Time-lapse</text>
</svg>
